<svg width="111" height="53" viewBox="0 0 111 53" fill="none" xmlns="http://www.w3.org/2000/svg">
<g clip-path="url(#clip0_3959_2)">
<path d="M9.90209 31.9232C9.37264 32.1413 8.64073 32.2659 7.90883 32.2659C6.05573 32.2659 5.12137 31.1448 5.12137 29.4784C5.12137 28.0146 5.68199 26.8155 6.5696 26.0992C7.20809 25.5697 8.06456 25.2894 8.96775 25.2894C9.87095 25.2894 10.5561 25.4763 10.8676 25.632L11.4749 23.8101C11.179 23.6232 10.3226 23.3585 9.18577 23.3585C7.7064 23.3585 6.4139 23.7166 5.32383 24.4797C3.73545 25.5386 2.67651 27.3761 2.67651 29.7275C2.67651 32.4995 4.54519 34.1814 7.31709 34.1814C8.57845 34.1814 9.52837 33.9788 10.089 33.7296L9.90209 31.9232Z" fill="#222221"/>
<path d="M17.7793 31.3003L17.9973 34.0255H20.3487L19.1185 23.5297H16.2376L11.1299 34.0255H13.5125L14.7582 31.3003H17.7793ZM15.4123 29.5874L16.4556 27.3294C16.7359 26.7221 17.0318 25.9123 17.2965 25.2738H17.3277C17.3744 25.9123 17.4367 26.7532 17.4834 27.3294L17.6859 29.5874H15.4123Z" fill="#222221"/>
<path d="M21.9552 34.0255H24.182L24.9607 29.8834H25.6459C26.5335 29.8834 26.9695 30.2726 27.0629 31.5495C27.1719 32.8422 27.281 33.7451 27.3744 34.0255H29.679C29.4922 33.5896 29.3989 32.2191 29.2743 31.0512C29.1653 30.1012 28.9004 29.4006 28.2775 29.1357V29.0734C29.6167 28.6375 30.66 27.672 30.66 26.1148C30.66 25.1337 30.1776 24.4641 29.4922 24.0592C28.7603 23.6076 27.7325 23.4519 26.7359 23.4519C25.6926 23.4519 24.6336 23.5609 23.9329 23.7322L21.9552 34.0255ZM25.8483 25.305C26.0352 25.2583 26.2999 25.2272 26.7203 25.2272C27.608 25.2272 28.3243 25.6009 28.3243 26.4418C28.3243 27.4696 27.4367 28.2015 26.222 28.2015H25.2877L25.8483 25.305Z" fill="#222221"/>
<path d="M37.5709 31.3003L37.7887 34.0255H40.1402L38.9101 23.5297H36.029L30.9214 34.0255H33.3039L34.5498 31.3003H37.5709ZM35.2039 29.5874L36.2472 27.3294C36.5276 26.7221 36.8235 25.9123 37.0881 25.2738H37.1191C37.1659 25.9123 37.2282 26.7532 37.275 27.3294L37.4773 29.5874H35.2039Z" fill="#C20E1A"/>
<path d="M43.1915 23.5297L42.0859 29.3848C41.9923 29.8834 41.9301 30.3971 41.9301 30.8489C41.9301 33.0913 43.2537 34.1968 45.4184 34.1968C48.2681 34.1968 49.6696 32.6708 50.2769 29.4939L51.4138 23.5297H49.1713L48.019 29.5874C47.6453 31.534 46.8666 32.3126 45.6985 32.3126C44.6865 32.3126 44.1725 31.6585 44.1725 30.8176C44.1725 30.3503 44.2038 29.9299 44.2815 29.5719L45.4339 23.5297H43.1915Z" fill="#C20E1A"/>
<path d="M51.9161 34.0255H54.1276L54.7972 30.5217L55.9182 29.4629L57.6779 34.0255H60.1074L57.6779 28.0614L61.9294 23.5297H59.1262L56.2141 27.0179C55.9182 27.3917 55.5913 27.7655 55.2799 28.217H55.2331L56.1209 23.5297H53.9094L51.9161 34.0255Z" fill="#C20E1A"/>
<path d="M63.4843 34.0255H65.7267L67.3305 25.4918H70.1335L70.5075 23.5297H62.7056L62.3162 25.4918H65.0881L63.4843 34.0255Z" fill="#C20E1A"/>
<path d="M72.1946 23.5297L70.2013 34.0255H72.4437L74.437 23.5297H72.1946Z" fill="#C20E1A"/>
<path d="M81.2016 23.3585C79.691 23.3585 78.3518 23.9191 77.3708 24.8534C76.1407 26.0369 75.4398 27.9211 75.4398 29.8211C75.4398 32.2659 76.9661 34.1969 79.691 34.1969C81.2639 34.1969 82.5876 33.6363 83.5686 32.6863C84.7677 31.5027 85.4373 29.6497 85.4373 27.7342C85.4373 25.2272 83.9735 23.3585 81.2016 23.3585ZM80.937 25.2272C82.5876 25.2272 83.0548 26.4885 83.0548 27.7965C83.0548 29.0112 82.6033 30.7398 81.7779 31.565C81.2951 32.0322 80.6723 32.3281 80.0182 32.3281C78.4922 32.3281 77.8226 31.2226 77.8226 29.743C77.8226 28.4819 78.2896 26.8467 79.1305 26.0214C79.6133 25.523 80.2361 25.2272 80.937 25.2272Z" fill="#C20E1A"/>
<path d="M88.5222 34.0255L89.2073 30.3503C89.5187 28.6997 89.7678 27.2048 89.8924 26.1926L89.9391 26.177C90.2196 27.4696 90.4997 28.4196 90.9669 29.8366L92.4307 34.0255H94.7509L96.7287 23.5297H94.6421L93.9257 27.345C93.6298 28.8866 93.4898 30.0389 93.443 31.1135H93.3962C93.1471 29.9611 92.8667 28.8711 92.4462 27.5318L91.0605 23.5297H88.4286L86.4353 34.0255H88.5222Z" fill="#C20E1A"/>
<path fill-rule="evenodd" clip-rule="evenodd" d="M98.279 0.659988L96.6976 1.30308L89.1546 1.27534C85.006 1.26025 78.8197 1.13056 75.4072 0.987249C68.9 0.714004 65.9174 0.859752 63.5465 1.56708C61.9294 2.04958 58.5725 4.31048 55.939 6.69111C52.2195 10.0535 50.8549 10.5202 43.1673 11.0577C37.6921 11.4404 36.1503 11.7354 34.5093 12.7137C32.9337 13.6537 30.9548 15.7185 30.2501 17.1587C29.3424 19.0147 29.5777 19.5892 30.5997 18.0103C31.4044 16.7672 33.1524 15.2708 34.7344 14.4712C35.9734 13.8447 38.4137 13.4186 42.4374 13.1266C51.179 12.4918 52.2115 12.1105 57.2497 7.65784C59.9627 5.2604 61.6008 4.14138 63.3668 3.47981C64.494 3.0574 65.7391 3.01676 81.0618 2.90338L97.5443 2.78123L98.943 1.38216C99.7126 0.612784 100.234 -0.00938229 100.101 0.000107127C99.9689 0.00935323 99.149 0.306446 98.279 0.659988Z" fill="#222221"/>
<path fill-rule="evenodd" clip-rule="evenodd" d="M40.7472 5.42583C38.2906 5.88107 36.0387 6.79814 32.7176 8.69577C25.8225 12.6356 24.5562 13.0159 16.0291 13.7062C9.8031 14.2104 6.83411 15.0537 4.32308 17.0309C2.49015 18.4745 -0.00946249 22.3895 2.69383e-05 23.802C0.00343339 24.284 0.163293 24.1173 0.769643 22.9993C1.84827 21.0111 4.19702 18.7212 6.13775 17.766C8.60937 16.5489 11.0477 16.0411 16.3318 15.6425C21.406 15.2598 22.9751 15.0328 24.9314 14.3989C26.3363 13.9434 29.2636 12.5254 31.5907 11.1725C34.4501 9.51041 37.1435 8.25271 38.9674 7.7281C42.312 6.76628 48.0497 6.83755 51.7717 7.88724C53.0029 8.23444 53.1029 8.22716 53.9006 7.73419C54.3612 7.44949 54.738 7.13197 54.738 7.02855C54.738 6.77137 51.4899 5.82754 49.1976 5.41878C46.8705 5.0039 43.0077 5.00708 40.7472 5.42583ZM57.3084 8.74761C56.9461 9.03228 56.7398 9.35006 56.8497 9.45372C56.9593 9.55714 58.5823 10.2061 60.456 10.8956C62.3294 11.5852 65.2796 12.7037 67.0122 13.3813C72.1157 15.3773 75.1022 16.0467 79.5566 16.1922C84.4724 16.3528 85.0415 16.2026 86.2135 14.4378C86.7004 13.704 87.0993 13.0531 87.0993 12.9916C87.0993 12.93 86.4698 13.1702 85.7003 13.5254C84.463 14.0967 83.931 14.1828 81.0992 14.2695C75.7657 14.433 72.3681 13.6184 62.6084 9.83668C60.327 8.95273 58.3495 8.22959 58.2138 8.22959C58.0776 8.22959 57.6705 8.46269 57.3084 8.74761Z" fill="#C20E1A"/>
<path d="M70.265 48.6296C70.6304 48.6961 71.4055 48.7625 72.3023 48.7625C73.9189 48.7625 75.015 48.4635 75.8787 47.7771C76.8088 47.0352 77.4177 45.784 77.4177 44.3446C77.4067 43.2485 77.0302 42.5066 76.4323 42.0084C75.8012 41.4658 74.8711 41.2001 73.7085 41.2001C72.9888 41.2001 72.2802 41.2555 71.6491 41.3662L70.265 48.6296ZM73.0331 42.5288C73.1992 42.4956 73.4317 42.4845 73.7085 42.4845C75.0261 42.4845 75.6794 43.182 75.6794 44.3557C75.6794 45.2526 75.4136 46.0276 74.9043 46.6034C74.4171 47.1681 73.6531 47.4781 72.7895 47.4781C72.5127 47.4781 72.2802 47.467 72.0919 47.4338L73.0331 42.5288ZM80.1601 41.2555L78.7428 48.7182H80.3372L81.7545 41.2555H80.1601ZM82.8108 48.7182H84.3941L84.9477 45.773H85.4349C86.066 45.773 86.3761 46.0498 86.4425 46.9577C86.52 47.8767 86.5975 48.5189 86.664 48.7182H88.3027C88.1698 48.4082 88.1034 47.4338 88.0148 46.6034C87.9373 45.928 87.749 45.4297 87.3062 45.2415V45.1972C88.2584 44.8872 89.0002 44.2007 89.0002 43.0935C89.0002 42.3959 88.657 41.9198 88.1698 41.6319C87.6494 41.3108 86.9186 41.2001 86.21 41.2001C85.4681 41.2001 84.7152 41.2776 84.217 41.3994L82.8108 48.7182ZM85.5789 42.5177C85.7117 42.4845 85.9 42.4623 86.1989 42.4623C86.83 42.4623 87.3394 42.7281 87.3394 43.326C87.3394 44.0568 86.7082 44.5772 85.8446 44.5772H85.1803L85.5789 42.5177ZM95.3668 44.2118H92.7094L93.0195 42.6174H95.8318L96.0976 41.2555H91.6797L90.2625 48.7182H94.8353L95.09 47.3563H92.1115L92.4548 45.5515H95.1121L95.3668 44.2118ZM102.449 47.2234C102.072 47.3784 101.552 47.467 101.032 47.467C99.7141 47.467 99.0497 46.6698 99.0497 45.4851C99.0497 44.4443 99.4483 43.5917 100.079 43.0824C100.533 42.7059 101.142 42.5066 101.785 42.5066C102.427 42.5066 102.914 42.6395 103.135 42.7502L103.567 41.4548C103.357 41.3219 102.748 41.1337 101.94 41.1337C100.888 41.1337 99.9687 41.3883 99.1937 41.9309C98.0643 42.6838 97.3114 43.9903 97.3114 45.6622C97.3114 47.6331 98.64 48.8289 100.611 48.8289C101.508 48.8289 102.183 48.685 102.582 48.5078L102.449 47.2234ZM105.825 48.7182H107.42L108.56 42.6506H110.553L110.819 41.2555H105.272L104.995 42.6506H106.966L105.825 48.7182Z" fill="#C20E1A"/>
</g>
<defs>
<clipPath id="clip0_3959_2">
<rect width="111" height="52.5935" fill="white"/>
</clipPath>
</defs>
</svg>
